<svg width="484" height="80" viewBox="0 0 484 80" fill="none" xmlns="http://www.w3.org/2000/svg">
<g clip-path="url(#clip0_0_531)" filter="url(#filter0_d_0_531)">
<rect x="4" width="476" height="72" fill="#18171F"/>
<g clip-path="url(#clip1_0_531)">
<path d="M245.172 46V31.264H240.588V28.48H252.78V31.264H248.196V46H245.172ZM261.075 46.24C259.955 46.24 258.979 46.032 258.147 45.616C257.331 45.184 256.699 44.584 256.251 43.816C255.819 43.032 255.603 42.112 255.603 41.056V33.424C255.603 32.368 255.819 31.456 256.251 30.688C256.699 29.904 257.331 29.304 258.147 28.888C258.979 28.456 259.955 28.24 261.075 28.24C262.211 28.24 263.187 28.456 264.003 28.888C264.819 29.304 265.443 29.904 265.875 30.688C266.323 31.456 266.547 32.36 266.547 33.4V41.056C266.547 42.112 266.323 43.032 265.875 43.816C265.443 44.584 264.819 45.184 264.003 45.616C263.187 46.032 262.211 46.24 261.075 46.24ZM261.075 43.6C261.891 43.6 262.507 43.384 262.923 42.952C263.339 42.504 263.547 41.872 263.547 41.056V33.424C263.547 32.592 263.339 31.96 262.923 31.528C262.507 31.096 261.891 30.88 261.075 30.88C260.259 30.88 259.643 31.096 259.227 31.528C258.811 31.96 258.603 32.592 258.603 33.424V41.056C258.603 41.872 258.811 42.504 259.227 42.952C259.659 43.384 260.275 43.6 261.075 43.6ZM275.466 46.24C274.346 46.24 273.37 46.032 272.538 45.616C271.722 45.184 271.09 44.584 270.642 43.816C270.21 43.032 269.994 42.112 269.994 41.056V33.424C269.994 32.368 270.21 31.456 270.642 30.688C271.09 29.904 271.722 29.304 272.538 28.888C273.37 28.456 274.346 28.24 275.466 28.24C276.602 28.24 277.578 28.456 278.394 28.888C279.21 29.304 279.834 29.904 280.266 30.688C280.714 31.456 280.938 32.36 280.938 33.4V41.056C280.938 42.112 280.714 43.032 280.266 43.816C279.834 44.584 279.21 45.184 278.394 45.616C277.578 46.032 276.602 46.24 275.466 46.24ZM275.466 43.6C276.282 43.6 276.898 43.384 277.314 42.952C277.73 42.504 277.938 41.872 277.938 41.056V33.424C277.938 32.592 277.73 31.96 277.314 31.528C276.898 31.096 276.282 30.88 275.466 30.88C274.65 30.88 274.034 31.096 273.618 31.528C273.202 31.96 272.994 32.592 272.994 33.424V41.056C272.994 41.872 273.202 42.504 273.618 42.952C274.05 43.384 274.666 43.6 275.466 43.6ZM299.231 46L297.431 28.48H300.023L301.079 40.72C301.111 40.992 301.135 41.328 301.151 41.728C301.183 42.112 301.207 42.504 301.223 42.904C301.255 43.304 301.271 43.656 301.271 43.96C301.303 43.656 301.335 43.304 301.367 42.904C301.399 42.504 301.431 42.112 301.463 41.728C301.511 41.328 301.551 40.992 301.583 40.72L303.023 28.48H305.543L306.887 40.72C306.935 40.992 306.975 41.328 307.007 41.728C307.055 42.112 307.103 42.504 307.151 42.904C307.199 43.304 307.239 43.656 307.271 43.96C307.287 43.656 307.303 43.304 307.319 42.904C307.335 42.504 307.351 42.112 307.367 41.728C307.399 41.328 307.431 40.992 307.463 40.72L308.495 28.48H311.063L309.167 46H305.855L304.559 33.712C304.527 33.408 304.487 33.056 304.439 32.656C304.407 32.24 304.375 31.832 304.343 31.432C304.311 31.016 304.287 30.664 304.271 30.376C304.255 30.664 304.223 31.016 304.175 31.432C304.143 31.832 304.111 32.24 304.079 32.656C304.047 33.056 304.015 33.408 303.983 33.712L302.567 46H299.231ZM313.55 46V28.48H324.062V31.096H316.502V35.656H323.222V38.248H316.502V43.384H324.062V46H313.55ZM326.668 46L331.084 28.48H334.948L339.388 46H336.316L335.356 41.752H330.7L329.74 46H326.668ZM331.252 39.304H334.804L333.748 34.6C333.572 33.816 333.42 33.112 333.292 32.488C333.164 31.848 333.076 31.384 333.028 31.096C332.98 31.384 332.892 31.848 332.764 32.488C332.652 33.112 332.5 33.808 332.308 34.576L331.252 39.304ZM342.043 46V28.48H345.043V35.56H347.131L350.419 28.48H353.683L349.771 36.88L353.875 46H350.539L347.083 38.296H345.043V46H342.043ZM360.705 40.408L360.177 31.792V28.48H363.441V31.792L362.913 40.408H360.705ZM361.449 46.12C360.953 46.12 360.553 45.976 360.249 45.688C359.945 45.384 359.793 45 359.793 44.536C359.793 44.072 359.945 43.696 360.249 43.408C360.553 43.104 360.953 42.952 361.449 42.952H362.169C362.681 42.952 363.081 43.096 363.369 43.384C363.673 43.672 363.825 44.056 363.825 44.536C363.825 45 363.673 45.384 363.369 45.688C363.065 45.976 362.657 46.12 362.145 46.12H361.449Z" fill="#E6E5EA"/>
<rect x="384.5" y="23" width="10" height="28" fill="#F64A4A"/>
<rect x="403" y="24" width="8" height="26" stroke="#E6E5EA" stroke-width="2"/>
<rect x="421" y="24" width="8" height="26" stroke="#E6E5EA" stroke-width="2"/>
<rect x="439.5" y="24" width="8" height="26" stroke="#E6E5EA" stroke-width="2"/>
</g>
<path d="M41.7641 43.18C40.8641 43.18 40.0841 43.03 39.4241 42.73C38.7641 42.43 38.2541 42.004 37.8941 41.452C37.5461 40.888 37.3661 40.228 37.3541 39.472H39.6041C39.6041 40.012 39.7961 40.438 40.1801 40.75C40.5761 41.05 41.1101 41.2 41.7821 41.2C42.4301 41.2 42.9341 41.05 43.2941 40.75C43.6661 40.45 43.8521 40.036 43.8521 39.508C43.8521 39.064 43.7201 38.68 43.4561 38.356C43.2041 38.02 42.8381 37.792 42.3581 37.672L40.8461 37.258C39.8141 36.994 39.0161 36.52 38.4521 35.836C37.9001 35.152 37.6241 34.324 37.6241 33.352C37.6241 32.608 37.7921 31.96 38.1281 31.408C38.4641 30.856 38.9381 30.43 39.5501 30.13C40.1741 29.83 40.9061 29.68 41.7461 29.68C43.0181 29.68 44.0261 30.01 44.7701 30.67C45.5141 31.318 45.8921 32.194 45.9041 33.298H43.6541C43.6541 32.782 43.4861 32.38 43.1501 32.092C42.8141 31.792 42.3401 31.642 41.7281 31.642C41.1401 31.642 40.6841 31.78 40.3601 32.056C40.0361 32.332 39.8741 32.722 39.8741 33.226C39.8741 33.682 39.9941 34.072 40.2341 34.396C40.4861 34.708 40.8461 34.93 41.3141 35.062L42.8801 35.494C43.9241 35.758 44.7221 36.232 45.2741 36.916C45.8261 37.588 46.1021 38.422 46.1021 39.418C46.1021 40.162 45.9221 40.822 45.5621 41.398C45.2021 41.962 44.6981 42.4 44.0501 42.712C43.4021 43.024 42.6401 43.18 41.7641 43.18ZM51.3871 43V31.948H47.9491V29.86H57.0931V31.948H53.6551V43H51.3871ZM59.2821 43V29.86H63.4401C64.3161 29.86 65.0721 30.022 65.7081 30.346C66.3561 30.67 66.8601 31.126 67.2201 31.714C67.5801 32.29 67.7601 32.974 67.7601 33.766C67.7601 34.63 67.5381 35.392 67.0941 36.052C66.6621 36.712 66.0741 37.18 65.3301 37.456L67.9401 43H65.4201L63.1341 37.78H61.5321V43H59.2821ZM61.5321 35.8H63.4401C64.0761 35.8 64.5741 35.626 64.9341 35.278C65.2941 34.93 65.4741 34.45 65.4741 33.838C65.4741 33.214 65.2941 32.728 64.9341 32.38C64.5741 32.02 64.0761 31.84 63.4401 31.84H61.5321V35.8ZM70.291 43V29.86H78.175V31.822H72.505V35.242H77.545V37.186H72.505V41.038H78.175V43H70.291ZM80.796 43V29.86H83.55L87.204 40.48C87.168 40.096 87.126 39.646 87.078 39.13C87.042 38.602 87.012 38.068 86.988 37.528C86.964 36.976 86.952 36.496 86.952 36.088V29.86H89.004V43H86.25L82.632 32.38C82.656 32.728 82.686 33.148 82.722 33.64C82.758 34.132 82.788 34.636 82.812 35.152C82.836 35.668 82.848 36.142 82.848 36.574V43H80.796ZM95.765 43.18C94.925 43.18 94.187 43.024 93.551 42.712C92.927 42.388 92.441 41.938 92.093 41.362C91.757 40.774 91.589 40.084 91.589 39.292V33.568C91.589 32.764 91.757 32.074 92.093 31.498C92.441 30.922 92.927 30.478 93.551 30.166C94.187 29.842 94.925 29.68 95.765 29.68C96.617 29.68 97.349 29.842 97.961 30.166C98.585 30.478 99.071 30.922 99.419 31.498C99.767 32.074 99.941 32.764 99.941 33.568H97.673C97.673 32.944 97.505 32.47 97.169 32.146C96.845 31.822 96.377 31.66 95.765 31.66C95.153 31.66 94.679 31.822 94.343 32.146C94.007 32.47 93.839 32.938 93.839 33.55V39.292C93.839 39.904 94.007 40.378 94.343 40.714C94.679 41.05 95.153 41.218 95.765 41.218C96.377 41.218 96.845 41.05 97.169 40.714C97.505 40.378 97.673 39.904 97.673 39.292V37.96H95.441V36.016H99.941V39.292C99.941 40.084 99.767 40.774 99.419 41.362C99.071 41.938 98.585 42.388 97.961 42.712C97.349 43.024 96.617 43.18 95.765 43.18ZM105.352 43V31.948H101.914V29.86H111.058V31.948H107.62V43H105.352ZM113.265 43V29.86H115.515V35.134H119.043V29.86H121.293V43H119.043V37.222H115.515V43H113.265Z" fill="#817D92"/>
</g>
<defs>
<filter id="filter0_d_0_531" x="0" y="0" width="484" height="80" filterUnits="userSpaceOnUse" color-interpolation-filters="sRGB">
<feFlood flood-opacity="0" result="BackgroundImageFix"/>
<feColorMatrix in="SourceAlpha" type="matrix" values="0 0 0 0 0 0 0 0 0 0 0 0 0 0 0 0 0 0 127 0" result="hardAlpha"/>
<feOffset dy="4"/>
<feGaussianBlur stdDeviation="2"/>
<feComposite in2="hardAlpha" operator="out"/>
<feColorMatrix type="matrix" values="0 0 0 0 0 0 0 0 0 0 0 0 0 0 0 0 0 0 0.25 0"/>
<feBlend mode="normal" in2="BackgroundImageFix" result="effect1_dropShadow_0_531"/>
<feBlend mode="normal" in="SourceGraphic" in2="effect1_dropShadow_0_531" result="shape"/>
</filter>
<clipPath id="clip0_0_531">
<rect width="476" height="72" fill="white" transform="translate(4)"/>
</clipPath>
<clipPath id="clip1_0_531">
<rect width="209.5" height="31" fill="white" transform="translate(239 21)"/>
</clipPath>
</defs>
</svg>
